# xmcd
#
# Track frame offsets: 
#        150
#        28777
#        42699
#        71673
#        85701
#        109130
#        133419
#        155825
#        176873
#        204521
#        215346
#        249534
#        264656
#        278502
#
# Disc length: 4208 seconds
#
# Revision: 5
# Processed by: cddbd v1.5.2PL0 Copyright (c) Steve Scherf et al.
# Submitted via: ExactAudioCopy v0.99pb5
#
DISCID=d9106e0e
DTITLE=Bob Dylan - Tell Tale Signs - The Bootleg Series Vol. 8 [CD2
DTITLE=)
DYEAR=2008
DGENRE=Folk/Rock
TTITLE0=Mississippi (Unreleased Version #2, Time Out Of Mind) 
TTITLE1=32-20 Blues (Unreleased, World Gone Wrong)
TTITLE2=Series Of Dreams (Unreleased, Oh Mercy)
TTITLE3=God Knows (Unreleased, Oh Mercy)
TTITLE4=Can't Escape From You (Unreleased, December 2005)
TTITLE5=Dignity (Unreleased, Oh Mercy)
TTITLE6=Ring Them Bells (Live At The Supper Club, 1993)
TTITLE7=Cocaine Blues (Live, 1997)
TTITLE8=Ain't Talkin' (Alternate Version, Modern Times)
TTITLE9=The Girl On The Greenbriar Shore (Live, 1992)
TTITLE10=Lonesome Day Blues (Live, 2002)
TTITLE11=Miss The Mississippi (Unreleased, 1992)
TTITLE12=The Lonesome River (With Ralph Stanley)
TTITLE13='Cross The Green Mountain (From Gods And Generals Soundtrack)
EXTD=YEAR: 2008
EXTT0=
EXTT1=
EXTT2=
EXTT3=
EXTT4=
EXTT5=
EXTT6=
EXTT7=
EXTT8=
EXTT9=
EXTT10=
EXTT11=
EXTT12=
EXTT13=
PLAYORDER=
